<?xml version="1.0" encoding="UTF-8"?>
<svg id="logosandtypes_com" data-name="logosandtypes com" xmlns="http://www.w3.org/2000/svg" viewBox="0 0 150 150">
  <defs>
    <style>
      .cls-1 {
        fill: #01ff95;
      }

      .cls-2 {
        fill: none;
      }
    </style>
  </defs>
  <path id="Layer_3" data-name="Layer 3" class="cls-2" d="M0,0H150V150H0V0Z"/>
  <path class="cls-1" d="M126.84,102.91c0,21.18-16.82,38.31-38.31,38.31s-38-16.66-38-38.31c0-10.12,3.89-19.15,9.97-25.85l-25.85,25.85-13.55-13.7,29.12-28.81c3.89-3.89,5.92-9.03,5.92-14.79V9.47h19.15V45.76c0,11.06-3.89,20.56-11.68,28.19l-.78,.78c6.7-6.23,15.88-9.97,25.7-9.97,21.8,0,38.31,17.29,38.31,38.15m-17.29,0c0-11.37-9.34-20.56-20.87-20.56s-20.87,9.66-20.87,20.56,9.19,20.71,20.71,20.71,21.02-9.81,21.02-20.71"/>
</svg>